<?xml version="1.0" encoding="UTF-8"?>
<svg id="_Слой_1" data-name="Слой 1" xmlns="http://www.w3.org/2000/svg" xmlns:xlink="http://www.w3.org/1999/xlink" viewBox="0 0 1080 1080">
  <defs>
    <style>
      .cls-1 {
        fill: #1e1e1e;
      }

      .cls-1, .cls-2, .cls-3, .cls-4 {
        stroke-width: 0px;
      }

      .cls-2 {
        fill: url(#_Безымянный_градиент_2);
      }

      .cls-3 {
        fill: #fff;
      }

      .cls-4 {
        fill: #80592c;
      }
    </style>
    <linearGradient id="_Безымянный_градиент_2" data-name="Безымянный градиент 2" x1="540" y1="7291.66" x2="540" y2="7081.8" gradientTransform="translate(0 7602.46) scale(1 -1)" gradientUnits="userSpaceOnUse">
      <stop offset="0" stop-color="#d1a159"/>
      <stop offset="1" stop-color="#aa7639"/>
    </linearGradient>
  </defs>
  <rect class="cls-3" y="0" width="1080" height="1080"/>
  <g>
    <g>
      <path class="cls-2" d="M633.05,316.71v111.26c0,50.64-41.94,92.78-93.22,92.69-51.31-.09-92.87-41.2-92.87-91.9v-112.05c0-3.26,2.68-5.91,5.98-5.91h8.38c33.31,0,61.85,23.83,67.05,56.33,1.13,7.03,1.76,13.92,1.76,20.15,0,0-.6,9.24-1.18,11.77h0c-3.64,15.84-17.98,27.66-35.11,27.66h-1.29c-5.6,0-10.32,4.37-10.38,9.91-.04,2.82,1.11,5.38,2.98,7.23,1.84,1.82,4.38,2.94,7.19,2.94h1.52c19.88,0,36,15.92,36,35.55v1.49c0,5.55,4.55,10.04,10.16,10.04,2.8,0,5.34-1.12,7.18-2.94,1.84-1.82,2.98-4.32,2.98-7.1v-1.5c0-19.63,16.11-35.55,35.99-35.55h1.52c5.61,0,10.16-4.49,10.16-10.04,0-2.77-1.13-5.28-2.98-7.09-1.84-1.81-4.38-2.94-7.18-2.94h-1.52c-17.13,0-31.47-11.82-35.1-27.66h0c-.59-2.55-1.18-11.78-1.18-11.78,0-6.22.64-13.11,1.77-20.16,5.21-32.49,33.74-56.32,67.05-56.32h8.36c3.3,0,5.98,2.65,5.98,5.91Z"/>
      <path class="cls-4" d="M482.5,434.47c-.23-.85-.34-1.75-.33-2.68.07-5.53,4.79-9.9,10.38-9.9h1.29c17.13,0,31.47-11.82,35.11-27.66h0c.45-1.98.91-7.95,1.09-10.56.07,1.29.09,2.56.09,3.79,0,0-.6,9.23-1.18,11.77h0c-3.64,15.84-17.97,27.67-35.11,27.67h-1.29c-4.77,0-8.92,3.19-10.05,7.56Z"/>
      <path class="cls-4" d="M550.47,394.89c-.35-3.45-.6-7.43-.6-7.43,0-1.23.02-2.5.09-3.79.1,1.45.28,3.94.51,6.21l.05.55c.16,1.58.34,3,.52,3.79v.02c3.64,15.83,17.96,27.66,35.1,27.66h1.53c1.06,0,2.08.16,3.03.45.13.04.24.09.33.12.13.03.25.08.38.14,1.3.5,2.47,1.27,3.44,2.23.72.71,1.32,1.52,1.8,2.41v.02c.75,1.39,1.17,2.97,1.17,4.65,0,.87-.11,1.72-.32,2.52-.2-.76-.48-1.49-.85-2.16v-.02c-.48-.9-1.08-1.7-1.8-2.41-.97-.96-2.14-1.73-3.44-2.23-.13-.07-.25-.11-.38-.14-.09-.03-.2-.08-.33-.12-.95-.28-1.97-.45-3.03-.45h-1.53c-17.13,0-31.46-11.82-35.1-27.66v-.02c-.19-.79-.36-2.21-.52-3.79l-.05-.55Z"/>
      <path class="cls-4" d="M633.05,419.67v8.3c0,50.63-41.95,92.78-93.22,92.69-51.31-.09-92.88-41.2-92.88-91.9v-8.3c0,50.7,41.57,91.81,92.88,91.9,51.27.09,93.22-42.06,93.22-92.69Z"/>
    </g>
    <g>
      <path class="cls-1" d="M417.83,646.9c-1,.07-2.2.13-3.61.2-1.34,0-2.57.07-3.71.2.13-.87.2-2,.2-3.41.07-1.47.1-3.11.1-4.91v-41.17c0-2.54.13-4.57.4-6.11.27-1.6.9-2.8,1.9-3.61,1-.87,2.57-1.34,4.71-1.4v-4.41h-24.64v5.51c1.07-.07,2.27-.13,3.61-.2,1.34-.07,2.57-.13,3.71-.2-.07,1-.13,2.2-.2,3.61-.07,1.34-.1,2.74-.1,4.21v41.67c0,2.47-.13,4.51-.4,6.11-.27,1.6-.9,2.8-1.9,3.61-.94.8-2.5,1.27-4.71,1.4v4.41h24.64v-5.51Z"/>
      <path class="cls-1" d="M428.6,587.6c.13,1.34.5,3,1.1,5.01.6,2,1.5,4.41,2.7,7.21l22.84,53.49h4.61c2.6-7.01,4.84-13.09,6.71-18.23,1.94-5.14,3.57-9.58,4.91-13.32,1.4-3.81,2.57-7.01,3.51-9.62.93-2.6,1.74-4.81,2.4-6.61.73-1.87,1.34-3.47,1.8-4.81.53-1.4,1.04-2.7,1.5-3.91,1.34-3.67,2.8-6.24,4.41-7.71,1.6-1.47,3.74-2.27,6.41-2.4v-4.41h-21.04v5.51c1.14-.07,2.4-.13,3.81-.2,1.4-.07,2.7-.13,3.91-.2-.53.93-1.1,2.14-1.7,3.61-.53,1.4-1.07,2.87-1.6,4.41-.74,2.07-1.57,4.41-2.51,7.01-.93,2.6-2,5.58-3.21,8.91-1.2,3.34-2.6,7.28-4.21,11.82-1,2.74-1.9,5.24-2.7,7.51-.8,2.2-1.57,4.41-2.3,6.61h-.1c-.93-2.34-2.04-5.01-3.3-8.01-1.27-3.01-2.6-6.21-4.01-9.62-1.74-4.07-3.37-7.98-4.91-11.72-1.47-3.74-2.97-7.55-4.51-11.42-1.33-3.21-1.57-5.61-.7-7.21.94-1.6,2.91-2.44,5.91-2.5l.1-4.51h-25.34v5.51c.87-.07,1.77-.1,2.7-.1s1.87-.03,2.8-.1Z"/>
      <path class="cls-1" d="M331.42,601.62c.67.93,1.37,1.84,2.1,2.7l37.26,49.48h6.11l.1-55.99c0-2.54.1-4.57.3-6.11.27-1.6.87-2.8,1.8-3.61,1-.87,2.57-1.34,4.71-1.4v-4.41h-19.83v5.51c1-.07,2.17-.13,3.51-.2,1.34-.07,2.6-.13,3.81-.2-.07,1-.13,2.2-.2,3.61-.07,1.34-.1,2.74-.1,4.21l-.1,41.17h-.1c-.87-1.14-1.77-2.34-2.7-3.61-.87-1.27-1.87-2.64-3.01-4.11l-35.26-46.38h-13.22v5.51c1-.07,2.14-.13,3.41-.2,1.34-.07,2.54-.13,3.61-.2-.07,1-.1,2.17-.1,3.51v48.88c0,1.6-.2,3.01-.6,4.21-.33,1.2-1,2.17-2,2.9-.94.73-2.34,1.1-4.21,1.1v4.41h19.83v-5.51c-1,.07-2.2.13-3.61.2-1.34,0-2.57.07-3.71.2.13-1.4.2-2.94.2-4.61.07-1.67.1-3.34.1-5.01l-.3-38.97h.1c.73,1,1.44,1.97,2.1,2.9Z"/>
      <path class="cls-1" d="M705.32,646.9c-1,.07-2.2.13-3.61.2-1.34,0-2.57.07-3.71.2.13-.87.2-2,.2-3.41.07-1.47.1-3.11.1-4.91v-41.17c0-2.54.13-4.57.4-6.11.27-1.6.9-2.8,1.9-3.61,1-.87,2.57-1.34,4.71-1.4v-4.41h-24.64v5.51c1.07-.07,2.27-.13,3.61-.2,1.34-.07,2.57-.13,3.71-.2-.07,1-.13,2.2-.2,3.61-.07,1.34-.1,2.74-.1,4.21v41.67c0,2.47-.13,4.51-.4,6.11s-.9,2.8-1.9,3.61c-.93.8-2.5,1.27-4.71,1.4v4.41h24.64v-5.51Z"/>
      <path class="cls-1" d="M598.68,647.7c1.27,1.67,2.77,3.24,4.51,4.71h13.92v-4.41c-1.87,0-3.47-.37-4.81-1.1-1.34-.8-2.54-1.9-3.61-3.31-1.07-1.4-2.24-3.11-3.51-5.11l-6.11-9.42c-1.14-1.74-2.24-3.31-3.31-4.71-1.07-1.4-2.27-2.5-3.61-3.31,4.67-1.07,8.35-2.64,11.02-4.71,2.67-2.07,4.57-4.41,5.71-7.01,1.14-2.67,1.67-5.34,1.6-8.01.07-4.27-.93-7.81-3.01-10.62-2-2.8-5.04-4.91-9.11-6.31-4.07-1.47-9.25-2.2-15.53-2.2-4.21-.07-8.38-.07-12.52,0-4.14,0-8.25.03-12.32.1v5.51c1.07-.07,2.27-.13,3.61-.2,1.34-.07,2.57-.13,3.71-.2-.07,1-.13,2.2-.2,3.61-.07,1.34-.1,2.74-.1,4.21v41.67c0,2.47-.13,4.51-.4,6.11-.27,1.6-.9,2.8-1.9,3.61-.93.8-2.5,1.27-4.71,1.4v4.41h24.94v-5.51c-.67,0-1.47.03-2.4.1-.87.07-1.77.13-2.71.2-.87,0-1.7.03-2.5.1.13-.87.2-2,.2-3.41.07-1.47.1-3.11.1-4.91v-16.53h6.31c1.14,1.07,2.17,2.37,3.11,3.91,1,1.54,1.94,2.97,2.8,4.31l6.91,11.22c1.4,2.14,2.7,4.07,3.91,5.81ZM581.45,617.55c-1.07.07-2.07.07-3.01,0-.87-.13-1.8-.23-2.8-.3v-19.63c0-2.4.13-4.37.4-5.91.27-1.54.87-2.7,1.8-3.51,1-.8,2.57-1.2,4.71-1.2,2.34,0,4.51.27,6.51.8,2.07.47,3.84,1.3,5.31,2.5,1.47,1.14,2.6,2.64,3.41,4.51.8,1.87,1.2,4.17,1.2,6.91,0,3.67-.7,6.68-2.1,9.02-1.4,2.27-3.4,3.97-6.01,5.11-2.6,1.07-5.74,1.64-9.42,1.7Z"/>
      <path class="cls-1" d="M288.16,587.8c1.07-.07,2.27-.13,3.61-.2,1.34-.07,2.57-.13,3.71-.2-.07,1-.13,2.2-.2,3.61-.07,1.34-.1,2.74-.1,4.21l-.2,27.55c-.07,5.14-.83,9.58-2.3,13.32-1.4,3.74-3.54,6.61-6.41,8.61-2.87,2-6.54,3.01-11.02,3.01-3.61-.07-6.68-.77-9.22-2.1-2.47-1.34-4.44-3.17-5.91-5.51-1.4-2.4-2.44-5.21-3.11-8.41-.6-3.27-.9-6.88-.9-10.82v-25.94c0-1.54.17-2.9.5-4.11.33-1.27,1-2.27,2-3.01,1-.73,2.47-1.1,4.41-1.1v-4.41h-24.54v5.41c1.07-.07,2.27-.1,3.61-.1,1.34-.07,2.57-.13,3.71-.2-.07,1.14-.17,2.77-.3,4.91-.07,2.14-.1,4.11-.1,5.91v21.64c0,5.54.47,10.45,1.4,14.72.94,4.21,2.47,7.78,4.61,10.72,2.2,2.87,5.14,5.04,8.82,6.51,3.67,1.47,8.21,2.2,13.62,2.2,4.67,0,8.71-.77,12.12-2.3,3.47-1.54,6.31-3.74,8.51-6.61,2.27-2.87,3.94-6.28,5.01-10.22,1.14-4.01,1.7-8.41,1.7-13.22l.1-23.84c.07-2.54.23-4.57.5-6.11.27-1.6.87-2.8,1.8-3.61,1-.87,2.6-1.34,4.81-1.4v-4.41h-20.23v5.51Z"/>
      <path class="cls-1" d="M629.68,613.34c2.07,1.74,4.37,3.27,6.91,4.61,2.61,1.34,5.28,2.6,8.01,3.81,2.74,1.2,5.34,2.47,7.81,3.81,2.54,1.34,4.61,2.94,6.21,4.81,1.67,1.87,2.5,4.17,2.5,6.91,0,2.34-.6,4.37-1.8,6.11-1.2,1.74-2.84,3.07-4.91,4.01-2.07.93-4.37,1.4-6.91,1.4-5.08,0-9.45-1.47-13.12-4.41-3.61-3.01-5.68-7.41-6.21-13.22h-4.81l.4,22.04h6.11l-.5-4.21c2.6,1.6,5.48,2.84,8.61,3.71,3.21.87,6.24,1.3,9.11,1.3,5.08,0,9.38-.84,12.92-2.5,3.61-1.67,6.38-3.97,8.31-6.91,1.94-2.94,2.9-6.28,2.9-10.02,0-3.21-.63-5.98-1.9-8.31-1.27-2.4-2.97-4.44-5.11-6.11-2.14-1.74-4.51-3.27-7.11-4.61-2.61-1.34-5.18-2.54-7.71-3.61-3.14-1.4-5.98-2.8-8.52-4.21-2.47-1.4-4.44-2.97-5.91-4.71-1.47-1.8-2.2-4.01-2.2-6.61,0-2.94,1.1-5.44,3.3-7.51,2.2-2.07,5.18-3.11,8.91-3.11,3.67-.07,6.74.73,9.22,2.4,2.47,1.6,4.41,3.77,5.81,6.51,1.4,2.74,2.27,5.81,2.6,9.22h4.61v-22.44h-6.01l.4,4.21c-2.6-1.87-5.51-3.17-8.71-3.91-3.14-.73-5.98-1.1-8.52-1.1-4.21,0-7.71.6-10.52,1.8-2.74,1.14-4.91,2.64-6.51,4.51-1.6,1.87-2.74,3.84-3.41,5.91-.67,2.07-1,4.04-1,5.91,0,3.21.6,6.01,1.8,8.41,1.2,2.34,2.84,4.37,4.91,6.11Z"/>
      <path class="cls-1" d="M820.59,582.29v5.51c1.14-.07,2.4-.1,3.81-.1,1.47-.07,2.8-.13,4.01-.2-.67.67-1.34,1.54-2,2.6-.6,1-1.17,2-1.7,3.01-.53,1-.97,1.84-1.3,2.5l-7.41,14.12c-.8,1.74-1.6,3.34-2.4,4.81-.73,1.4-1.4,2.74-2,4.01h-.2c-.6-1.14-1.27-2.24-2-3.31-.67-1.14-1.34-2.24-2-3.31-.67-1.07-1.27-2-1.8-2.8l-7.91-12.62c-1.2-2-1.87-3.74-2-5.21-.13-1.54.4-2.7,1.6-3.51,1.27-.8,3.24-1.17,5.91-1.1v-4.41h-27.05v5.51c.93-.07,1.87-.1,2.8-.1s1.94-.03,3.01-.1c.13,1.2.6,2.7,1.4,4.51.87,1.8,2,3.87,3.4,6.21l17.83,28.05-.1,10.52c0,2.4-.13,4.44-.4,6.11-.27,1.6-.87,2.8-1.8,3.61-.93.8-2.51,1.27-4.71,1.4v4.41h25.44v-5.51c-1.14.07-2.47.13-4.01.2-1.47,0-2.87.07-4.21.2.13-.87.2-2,.2-3.41.07-1.47.1-3.11.1-4.91v-11.72c.07-1.67.1-3.04.1-4.11,2-3.87,4.07-7.81,6.21-11.82,2.14-4.07,4.31-8.21,6.51-12.42,2.2-4.07,4.27-7.05,6.21-8.91,2-1.94,4.47-3.04,7.41-3.31v-4.41h-20.94Z"/>
      <path class="cls-1" d="M713.19,582.29l-.6,21.64h4.71c0-5.74.93-9.98,2.8-12.72,1.87-2.74,4.84-4.11,8.91-4.11l8.41-.1v49.88c0,2.4-.13,4.44-.4,6.11-.27,1.6-.87,2.8-1.8,3.61-.93.8-2.5,1.27-4.71,1.4v4.41h25.44v-5.51c-1.2.07-2.57.13-4.11.2-1.47,0-2.84.07-4.11.2.13-.87.2-2,.2-3.41.07-1.47.1-3.11.1-4.91l.1-52.09h7.21c3.21-.07,5.71.53,7.51,1.8,1.87,1.27,3.21,3.17,4.01,5.71.8,2.54,1.24,5.71,1.3,9.52h4.71l-.6-21.64h-59.1Z"/>
      <path class="cls-1" d="M548.29,632.07h-4.41c0,3.81-.6,6.81-1.8,9.02-1.2,2.2-2.84,3.77-4.91,4.71-2.07.87-4.41,1.34-7.01,1.4l-17.23.2c.13-.87.2-1.97.2-3.31.07-1.4.1-3.01.1-4.81v-20.84l5.81-.2c2.47-.13,4.54-.03,6.21.3,1.67.27,2.91,1.04,3.71,2.3.87,1.27,1.3,3.34,1.3,6.21h4.41v-22.14h-5.51l.6,8.61h-16.53v-15.73c0-2.67.17-4.77.5-6.31.33-1.6,1.03-2.74,2.1-3.41,1.07-.73,2.64-1.1,4.71-1.1l7.01-.2c2.27-.07,4.37.23,6.31.9,2,.67,3.61,2,4.81,4.01,1.27,2,1.9,4.91,1.9,8.71h4.41l-.5-18.13h-48.88v5.51c1.07-.07,2.27-.13,3.61-.2,1.34-.07,2.57-.13,3.71-.2-.07,1-.13,2.2-.2,3.61-.07,1.34-.1,2.74-.1,4.21v41.67c0,2.47-.13,4.51-.4,6.11-.27,1.6-.9,2.8-1.9,3.61-.93.8-2.5,1.27-4.71,1.4v4.41h52.09l.6-20.33Z"/>
      <path class="cls-1" d="M500.54,701.33c1.07-.06,2.27-.13,3.61-.2,1.33-.07,2.57-.13,3.7-.2-.06,1-.13,2.21-.2,3.61-.06,1.33-.1,2.74-.1,4.2l-.2,27.55c-.06,5.14-.83,9.58-2.3,13.32-1.4,3.74-3.54,6.61-6.41,8.62-2.87,2-6.55,3-11.02,3-3.61-.06-6.68-.77-9.22-2.1-2.47-1.34-4.44-3.17-5.91-5.51-1.4-2.4-2.43-5.21-3.1-8.41-.6-3.28-.9-6.88-.9-10.82v-25.95c0-1.53.16-2.9.5-4.1.33-1.27,1-2.27,2-3.01,1-.73,2.47-1.1,4.41-1.1v-4.41h-24.54v5.41c1.07-.06,2.27-.1,3.6-.1,1.34-.07,2.57-.13,3.71-.2-.07,1.14-.17,2.77-.3,4.91-.07,2.14-.1,4.11-.1,5.91v21.64c0,5.54.47,10.45,1.4,14.72.94,4.21,2.47,7.78,4.61,10.72,2.2,2.87,5.14,5.04,8.81,6.51,3.68,1.47,8.22,2.2,13.63,2.2,4.67,0,8.71-.76,12.12-2.3,3.47-1.54,6.31-3.74,8.51-6.61,2.27-2.87,3.94-6.28,5.01-10.22,1.13-4.01,1.7-8.41,1.7-13.22l.1-23.84c.07-2.54.24-4.58.5-6.11.27-1.6.87-2.81,1.81-3.61,1-.87,2.6-1.33,4.8-1.4v-4.41h-20.23v5.51Z"/>
      <path class="cls-1" d="M632.66,733.69c-2.14-1.74-4.51-3.28-7.12-4.61-2.6-1.34-5.17-2.54-7.71-3.61-3.14-1.4-5.98-2.8-8.51-4.2-2.47-1.41-4.44-2.98-5.91-4.71-1.47-1.81-2.21-4.01-2.21-6.61,0-2.94,1.1-5.45,3.31-7.52,2.2-2.07,5.17-3.1,8.91-3.1,3.68-.07,6.75.73,9.22,2.4,2.47,1.61,4.41,3.78,5.81,6.51,1.4,2.74,2.27,5.81,2.6,9.22h4.61v-22.44h-6.01l.4,4.21c-2.6-1.87-5.51-3.17-8.71-3.91-3.14-.73-5.98-1.1-8.52-1.1-4.2,0-7.71.6-10.52,1.8-2.73,1.14-4.9,2.64-6.51,4.51-1.6,1.87-2.73,3.84-3.4,5.91-.67,2.07-1,4.04-1,5.91,0,3.21.6,6.01,1.8,8.41,1.2,2.34,2.84,4.38,4.91,6.11,2.07,1.74,4.37,3.28,6.91,4.61,2.6,1.34,5.27,2.61,8.01,3.81s5.35,2.47,7.82,3.81c2.53,1.33,4.6,2.93,6.21,4.8,1.67,1.87,2.5,4.18,2.5,6.92,0,2.33-.6,4.37-1.8,6.11-1.2,1.73-2.84,3.07-4.91,4-2.07.94-4.37,1.4-6.91,1.4-5.08,0-9.45-1.46-13.12-4.4-3.61-3.01-5.68-7.42-6.21-13.23h-4.81l.4,22.04h6.11l-.5-4.21c2.6,1.61,5.47,2.84,8.61,3.71,3.21.87,6.25,1.3,9.12,1.3,5.07,0,9.38-.83,12.92-2.5,3.6-1.67,6.38-3.97,8.31-6.91,1.94-2.94,2.91-6.28,2.91-10.02,0-3.2-.64-5.98-1.91-8.31-1.26-2.41-2.97-4.44-5.1-6.11Z"/>
      <path class="cls-1" d="M646.39,695.82l-.6,21.64h4.71c0-5.74.94-9.98,2.81-12.72s4.84-4.11,8.91-4.11l8.41-.1v49.88c0,2.41-.13,4.45-.4,6.11-.26,1.61-.86,2.81-1.8,3.61-.93.8-2.5,1.27-4.71,1.4v4.41h25.45v-5.51c-1.21.07-2.58.13-4.11.2-1.47,0-2.84.07-4.11.2.14-.87.2-2,.2-3.4.07-1.47.1-3.11.1-4.91l.1-52.09h7.21c3.21-.07,5.71.53,7.52,1.8,1.87,1.27,3.2,3.18,4,5.71.81,2.54,1.24,5.71,1.31,9.52h4.7l-.6-21.64h-59.1Z"/>
      <path class="cls-1" d="M575.35,754.62c-1.2,2.21-2.83,3.77-4.9,4.71-2.07.87-4.41,1.34-7.02,1.4l-17.22.2c.13-.87.2-1.97.2-3.3.06-1.41.1-3.01.1-4.81v-20.84l5.81-.2c2.47-.13,4.54-.03,6.21.3,1.67.27,2.9,1.04,3.7,2.31.87,1.27,1.3,3.34,1.3,6.21h4.41v-22.14h-5.51l.6,8.62h-16.52v-15.73c0-2.67.16-4.78.5-6.31.33-1.6,1.03-2.74,2.1-3.41,1.07-.73,2.64-1.1,4.71-1.1l7.01-.2c2.27-.07,4.37.23,6.31.9,2,.67,3.61,2.01,4.81,4.01,1.27,2,1.9,4.91,1.9,8.71h4.41l-.5-18.13h-48.88v5.51c1.06-.06,2.27-.13,3.6-.2,1.34-.07,2.57-.13,3.71-.2-.07,1-.13,2.21-.2,3.61-.07,1.33-.1,2.74-.1,4.2v41.67c0,2.48-.14,4.51-.4,6.11-.27,1.61-.9,2.81-1.91,3.61-.93.8-2.5,1.27-4.7,1.4v4.41h52.08l.61-20.33h-4.41c0,3.8-.6,6.81-1.81,9.01Z"/>
      <path class="cls-1" d="M442.28,762.54c-.88,0-1.92-.2-3.11-.56-1.12-.3-2.21-.66-3.33-1.11-1.11-.53-2.19-1.08-3.22-1.68-.13-.08-.25-.17-.37-.25,2.21-2.01,4.1-4.25,5.66-6.72,2.07-3.34,3.64-6.85,4.71-10.52,1.07-3.67,1.6-7.28,1.6-10.82,0-4.2-.7-8.44-2.1-12.72-.53-1.6-1.16-3.16-1.89-4.66-.49-1.01-1.02-2-1.6-2.96-.58-.96-1.21-1.91-1.88-2.83-.33-.46-.68-.92-1.04-1.37-.72-.92-1.49-1.8-2.31-2.62-2.46-2.47-5.36-4.54-8.71-6.19-4.48-2.21-9.75-3.31-15.83-3.31s-11.12,1.1-15.53,3.31c-3.25,1.65-6.11,3.69-8.57,6.14-.83.81-1.6,1.67-2.34,2.57-1.44,1.8-2.69,3.7-3.76,5.69-.53.99-1.02,2.01-1.46,3.04-.44,1.04-.84,2.11-1.19,3.19-.35,1.07-.66,2.13-.92,3.2-.79,3.19-1.18,6.36-1.18,9.52,0,2.14.16,4.28.47,6.44.32,2.15.8,4.31,1.43,6.48.31,1.07.68,2.12,1.09,3.15.41,1.02.86,2.03,1.36,3.01,1,1.98,2.19,3.86,3.56,5.66.35.44.71.87,1.09,1.3.37.42.76.83,1.16,1.23.8.81,1.64,1.57,2.53,2.28.89.71,1.83,1.39,2.82,2.03.99.64,2.02,1.23,3.11,1.78,4.41,2.13,9.72,3.24,15.93,3.3,5.1,0,6.73-.35,10.42-1.3,2.19-.58,4.22-1.34,6.11-2.27,1.48,1.01,3.01,1.94,4.63,2.78,3.11,1.63,6.67,2.44,10.67,2.44,1.04,0,2.21-.25,3.56-.77,1.4-.52,2.73-1.22,3.99-2.1.86-.57,1.62-1.19,2.27-1.89l-2.72-3.91c-1.64,1.35-3.35,2.02-5.11,2.02ZM416.4,761.32c-.76.25-1.55.46-2.37.62-.26.06-.52.1-.79.14-1.1.17-2.26.25-3.47.25-1.07,0-2.1-.07-3.1-.19-.49-.07-.98-.15-1.46-.24-2.39-.48-4.55-1.38-6.47-2.67-3-2.07-5.47-4.77-7.41-8.11-.49-.84-.94-1.69-1.36-2.56-.14-.28-.25-.58-.38-.87.98-.78,2.06-1.43,3.25-1.93,1.57-.67,3.08-1.01,4.57-1.01,1.76,0,3.51.38,5.21,1.12,1.79.66,3.53,1.6,5.22,2.78,1.71,1.17,3.38,2.56,5,4.11,1.3,1.24,2.57,2.51,3.81,3.84.06.08.11.15.18.22.2.22.45.5.78.83.6.62,1.38,1.37,2.15,2.09-1.04.64-2.16,1.17-3.36,1.58ZM431.23,741.87c-.1.45-.21.89-.33,1.33-.87,3.48-2.24,6.68-4.11,9.62-.21.33-.45.63-.67.95-.01-.01-.03-.03-.04-.04-.02-.02,0-.02,0-.02-.18-.18-.33-.33-.43-.45-1.43-1.75-2.97-3.44-4.59-5.05-1.76-1.86-3.71-3.46-5.77-4.79-2-1.4-4.14-2.52-6.44-3.33-2.3-.9-4.71-1.33-7.23-1.33-2.81,0-5.63.67-8.44,2-2.01.93-3.64,2.17-4.9,3.74-.32-.91-.63-1.82-.88-2.76-.13-.48-.25-.96-.37-1.44-.23-.97-.44-1.93-.62-2.87-.53-2.83-.79-5.55-.79-8.15,0-.88.03-1.77.08-2.65.06-.88.14-1.76.25-2.64.05-.43.11-.87.18-1.31.14-.87.3-1.75.49-2.62.1-.43.2-.87.31-1.3.23-.88.49-1.75.78-2.59.86-2.53,1.97-4.87,3.32-7.02.23-.37.46-.73.7-1.08.73-1.04,1.53-2.01,2.41-2.9,1.17-1.2,2.47-2.24,3.9-3.14,2.87-1.8,6.25-2.7,10.12-2.7s7.41.93,10.42,2.8c1.88,1.13,3.56,2.53,5.05,4.21.59.67,1.16,1.38,1.69,2.14.26.38.52.77.77,1.17,2.07,3.14,3.61,6.71,4.61,10.72,1.07,3.93,1.6,8.04,1.6,12.32,0,1.73-.12,3.48-.35,5.23-.17,1.31-.41,2.63-.72,3.95Z"/>
    </g>
  </g>
</svg>