<?xml version="1.0" encoding="UTF-8"?>
<svg xmlns="http://www.w3.org/2000/svg" viewBox="390 268 300 300">
  <defs>
    <linearGradient id="logoGold" x1="540" y1="10074.7" x2="540" y2="9864.84" gradientTransform="translate(0 10385.51) scale(1 -1)" gradientUnits="userSpaceOnUse">
      <stop offset="0" stop-color="#d1a159"/>
      <stop offset="1" stop-color="#aa7639"/>
    </linearGradient>
  </defs>
  <rect x="390" y="268" width="300" height="300" rx="64" fill="#1e1e1e"/>
  <g>
    <path fill="url(#logoGold)" d="M633.05,316.71v111.26c0,50.64-41.94,92.78-93.22,92.69-51.31-.09-92.87-41.2-92.87-91.9v-112.05c0-3.26,2.68-5.91,5.98-5.91h8.38c33.31,0,61.85,23.83,67.05,56.33,1.13,7.03,1.76,13.92,1.76,20.15,0,0-.6,9.24-1.18,11.77h0c-3.64,15.84-17.98,27.66-35.11,27.66h-1.29c-5.6,0-10.32,4.37-10.38,9.91-.04,2.82,1.11,5.38,2.98,7.23,1.84,1.82,4.38,2.94,7.19,2.94h1.52c19.88,0,36,15.92,36,35.55v1.49c0,5.55,4.55,10.04,10.16,10.04,2.8,0,5.34-1.12,7.18-2.94,1.84-1.82,2.98-4.32,2.98-7.1v-1.5c0-19.63,16.11-35.55,35.99-35.55h1.52c5.61,0,10.16-4.49,10.16-10.04,0-2.77-1.13-5.28-2.98-7.09-1.84-1.81-4.38-2.94-7.18-2.94h-1.52c-17.13,0-31.47-11.82-35.1-27.66h0c-.59-2.55-1.18-11.78-1.18-11.78,0-6.22.64-13.11,1.77-20.16,5.21-32.49,33.74-56.32,67.05-56.32h8.36c3.3,0,5.98,2.65,5.98,5.91Z"/>
    <path fill="#80592c" d="M482.5,434.47c-.23-.85-.34-1.75-.33-2.68.07-5.53,4.79-9.9,10.38-9.9h1.29c17.13,0,31.47-11.82,35.11-27.66h0c.45-1.98.91-7.95,1.09-10.56.07,1.29.09,2.56.09,3.79,0,0-.6,9.23-1.18,11.77h0c-3.64,15.84-17.97,27.67-35.11,27.67h-1.29c-4.77,0-8.92,3.19-10.05,7.56Z"/>
    <path fill="#80592c" d="M550.47,394.89c-.35-3.45-.6-7.43-.6-7.43,0-1.23.02-2.5.09-3.79.1,1.45.28,3.94.51,6.21l.05.55c.16,1.58.34,3,.52,3.79v.02c3.64,15.83,17.96,27.66,35.1,27.66h1.53c1.06,0,2.08.16,3.03.45.13.04.24.09.33.12.13.03.25.08.38.14,1.3.5,2.47,1.27,3.44,2.23.72.71,1.32,1.52,1.8,2.41v.02c.75,1.39,1.17,2.97,1.17,4.65,0,.87-.11,1.72-.32,2.52-.2-.76-.48-1.49-.85-2.16v-.02c-.48-.9-1.08-1.7-1.8-2.41-.97-.96-2.14-1.73-3.44-2.23-.13-.07-.25-.11-.38-.14-.09-.03-.2-.08-.33-.12-.95-.28-1.97-.45-3.03-.45h-1.53c-17.13,0-31.46-11.82-35.1-27.66v-.02c-.19-.79-.36-2.21-.52-3.79l-.05-.55Z"/>
    <path fill="#80592c" d="M633.05,419.67v8.3c0,50.63-41.95,92.78-93.22,92.69-51.31-.09-92.88-41.2-92.88-91.9v-8.3c0,50.7,41.57,91.81,92.88,91.9,51.27.09,93.22-42.06,93.22-92.69Z"/>
  </g>
</svg>
